<svg id="Layer_1" enable-background="new 0 0 512 512" height="512" viewBox="0 0 512 512" width="512" xmlns="http://www.w3.org/2000/svg"><g><g><path d="m449.169 512h-87.519c-7.658 0-14.086-5.768-14.912-13.381l-20.354-187.48c-.46-4.235.903-8.466 3.748-11.637 2.845-3.17 6.904-4.982 11.165-4.982h128.226c4.26 0 8.319 1.812 11.164 4.982 2.845 3.171 4.208 7.402 3.748 11.637l-20.354 187.48c-.826 7.613-7.254 13.381-14.912 13.381z" fill="#007a9f"/></g><path d="m480.687 299.501c-2.845-3.17-6.904-4.982-11.164-4.982h-64.113v217.481h43.759c7.658 0 14.086-5.768 14.912-13.381l20.354-187.48c.46-4.236-.903-8.467-3.748-11.638z" fill="#00607f"/><g><path d="m455.564 377h-100.308c-26.708 0-48.436-21.571-48.436-48.086v-109.184c0-26.515 21.729-48.086 48.436-48.086h100.309c26.708 0 48.436 21.571 48.436 48.086v109.184c-.001 26.515-21.729 48.086-48.437 48.086z" fill="#7dd5f4"/></g><path d="m455.564 171.644h-50.154v205.356h50.154c26.708 0 48.436-21.571 48.436-48.086v-109.184c0-26.515-21.728-48.086-48.436-48.086z" fill="#4793ff"/><g><path d="m405.41 196c-37.529 0-68.061-30.532-68.061-68.061s30.532-68.061 68.061-68.061 68.061 30.532 68.061 68.061-30.532 68.061-68.061 68.061z" fill="#ffe4c1"/></g><path d="m405.41 59.878v136.122c37.529 0 68.061-30.532 68.061-68.061s-30.532-68.061-68.061-68.061z" fill="#fdd1a3"/><g><path d="m150.35 512h-87.519c-7.658 0-14.086-5.768-14.912-13.381l-20.354-187.48c-.46-4.235.903-8.466 3.748-11.637 2.845-3.17 6.904-4.982 11.165-4.982h128.226c4.26 0 8.319 1.812 11.164 4.982 2.845 3.171 4.208 7.402 3.748 11.637l-20.354 187.48c-.826 7.613-7.255 13.381-14.912 13.381z" fill="#007a9f"/></g><path d="m181.867 299.501c-2.845-3.17-6.904-4.982-11.164-4.982h-64.113v217.481h43.759c7.658 0 14.086-5.768 14.912-13.381l20.354-187.48c.46-4.236-.902-8.467-3.748-11.638z" fill="#00607f"/><g><path d="m156.745 377h-100.309c-26.707 0-48.436-21.571-48.436-48.086v-109.184c0-26.515 21.729-48.086 48.436-48.086h100.309c26.708 0 48.436 21.571 48.436 48.086v109.184c-.001 26.515-21.729 48.086-48.436 48.086z" fill="#7dd5f4"/></g><path d="m156.745 171.644h-50.155v205.356h50.154c26.708 0 48.436-21.571 48.436-48.086v-109.184c0-26.515-21.728-48.086-48.435-48.086z" fill="#4793ff"/><g><path d="m106.59 196c-37.529 0-68.061-30.532-68.061-68.061s30.532-68.061 68.061-68.061 68.061 30.532 68.061 68.061-30.532 68.061-68.061 68.061z" fill="#ffe4c1"/></g><g><path d="m299.718 512h-87.519c-7.658 0-14.086-5.768-14.912-13.381l-20.354-187.48c-.46-4.235.903-8.466 3.748-11.637 2.845-3.17 6.904-4.982 11.165-4.982h128.226c4.26 0 8.319 1.812 11.164 4.982 2.846 3.171 4.208 7.402 3.748 11.637l-20.354 187.48c-.826 7.613-7.255 13.381-14.912 13.381z" fill="#007a9f"/></g><path d="m106.59 59.878v136.122c37.529 0 68.061-30.532 68.061-68.061s-30.532-68.061-68.061-68.061z" fill="#fdd1a3"/><path d="m331.235 299.501c-2.845-3.17-6.904-4.982-11.164-4.982h-64.113v217.481h43.76c7.657 0 14.086-5.768 14.912-13.381l20.354-187.48c.459-4.236-.903-8.467-3.749-11.638z" fill="#00607f"/><g><path d="m310.913 348.102h-109.908c-28.472 0-51.636-23.349-51.636-52.048v-122.26c0-28.7 23.164-52.048 51.636-52.048h109.909c28.472 0 51.636 23.349 51.636 52.048v122.26c-.001 28.699-23.165 52.048-51.637 52.048z" fill="#fff4f4"/></g><path d="m310.913 121.746h-54.955v226.356h54.955c28.472 0 51.636-23.349 51.636-52.048v-122.26c0-28.7-23.164-52.048-51.636-52.048z" fill="#f6efea"/><g><path d="m255.959 259.929c-4.649 0-9.035-2.155-11.875-5.836l-27.477-35.605c-3.218-4.17-4.013-9.723-2.094-14.629l27.477-70.232c2.25-5.751 7.794-9.535 13.969-9.535s11.719 3.784 13.969 9.535l27.477 70.232c1.92 4.906 1.125 10.458-2.094 14.629l-27.477 35.605c-2.84 3.68-7.226 5.836-11.875 5.836z" fill="#ff8856"/></g><path d="m297.404 203.859-27.477-70.232c-2.25-5.751-7.794-9.535-13.969-9.535 0 0 0 0-.001 0v135.837h.001c4.648 0 9.035-2.156 11.875-5.836l27.477-35.605c3.219-4.17 4.014-9.723 2.094-14.629z" fill="#ff435b"/><g><g><path d="m255.959 136.122c-37.529 0-68.061-30.532-68.061-68.061s30.532-68.061 68.061-68.061c37.528 0 68.061 30.532 68.061 68.061s-30.533 68.061-68.061 68.061z" fill="#ffe4c1"/></g></g><path d="m255.959 0-.001 136.122h.001c37.528 0 68.061-30.532 68.061-68.061s-30.533-68.061-68.061-68.061z" fill="#fdd1a3"/></g></svg>